<?xml version="1.0" encoding="UTF-8"?>
<svg width="236px" height="70px" viewBox="0 0 236 70" version="1.1" xmlns="http://www.w3.org/2000/svg" xmlns:xlink="http://www.w3.org/1999/xlink">
    <!-- Generator: Sketch 43.2 (39069) - http://www.bohemiancoding.com/sketch -->
    <title>Desktop HD</title>
    <desc>Created with Sketch.</desc>
    <defs></defs>
    <g id="Page-1" stroke="none" stroke-width="1" fill="none" fill-rule="evenodd">
        <g id="Desktop-HD">
            <g id="Group">
                <g id="webpack-icon" transform="translate(30.000000, 5.000000)" fill-rule="nonzero">
                    <polygon id="Shape" fill="#FFFFFF" points="28.5 0 56.9624294 16.25 56.9624294 48.75 28.5 65 0.0375706215 48.75 0.0375706215 16.25"></polygon>
                    <path d="M51.879661,47.62875 L29.4392655,60.4391667 L29.4392655,50.4616667 L43.420904,42.6995833 L51.879661,47.62875 Z M53.4146893,46.2258333 L53.4146893,19.435 L45.2028249,24.2179167 L45.2028249,41.4375 L53.4146893,46.2258333 Z M5.02909605,47.62875 L27.4694915,60.4391667 L27.4694915,50.4616667 L13.4878531,42.6995833 L5.02909605,47.62875 L5.02909605,47.62875 Z M3.4940678,46.2258333 L3.4940678,19.435 L11.7059322,24.2179167 L11.7059322,41.4375 L3.4940678,46.2258333 L3.4940678,46.2258333 Z M4.45480226,17.7016667 L27.4694915,4.56083333 L27.4694915,14.2079167 L12.7257062,22.3925 L12.6129944,22.4575 L4.45480226,17.7016667 L4.45480226,17.7016667 Z M52.4539548,17.7016667 L29.4392655,4.56083333 L29.4392655,14.2079167 L44.1830508,22.3925 L44.2957627,22.4575 L52.4539548,17.7016667 L52.4539548,17.7016667 Z" id="Shape" fill="#8ED6FB"></path>
                    <path d="M27.4694915,48.1920833 L13.6757062,40.5383333 L13.6757062,25.3716667 L27.4694915,33.41 L27.4694915,48.1920833 M29.4392655,48.1920833 L43.2330508,40.5383333 L43.2330508,25.3716667 L29.4392655,33.41 L29.4392655,48.1920833 M14.6096045,23.6166667 L28.4570621,15.9304167 L42.3045198,23.6166667 L28.4570621,31.6875 L14.6096045,23.6166667" id="Shape" fill="#1C78C0"></path>
                </g>
                <g id="gulp" fill-rule="nonzero">
                    <path d="M23.11875,63.0188781 L23.7547266,52.6338074 L25.5107813,49.6961749 C25.5107813,49.6961749 21.5139844,51.2984364 14.8226953,51.2984364 C8.13128906,51.2984364 4.19507813,49.7258039 4.19507813,49.7258039 L6.163125,52.9303269 L6.85933594,63.0188781 C6.85933594,64.1004505 10.4990625,64.9771466 14.9891016,64.9771466 C19.4789063,64.9771466 23.11875,64.1004505 23.11875,63.0188781 M21.1126172,14.5221025 L22.4475,9.35138693 L29.8398047,1.72870141 L27.8914453,0.102438163 L20.0651953,8.2225 L18.5152734,14.4001413 C17.3487696,14.361838 16.1816897,14.34281 15.0145313,14.3430654 C6.77203125,14.3430654 0.0901171875,15.2636307 0.0901171875,16.3989488 C0.0901171875,17.5343816 6.77203125,18.4548322 15.0145313,18.4548322 C23.2569141,18.4548322 29.9387109,17.5343816 29.9387109,16.3989488 C29.9387109,15.5629064 26.3148047,14.8433127 21.1126172,14.5221025" id="Shape" fill="#D34A47"></path>
                    <path d="M20.3361328,17.4264879 C20.3361328,17.4264879 20.0470312,17.4907743 19.1966016,17.4943781 C18.3459375,17.4978656 17.7419531,17.4889143 17.5013672,17.2715263 C17.4366797,17.2131687 17.4012891,17.0972672 17.4016406,17.0187982 C17.4023437,16.8694166 17.5092187,16.7814152 17.6453906,16.7263125 L17.7741797,16.926728 C17.7181641,16.9459093 17.6861719,16.9685781 17.6860547,16.9927582 C17.6855859,17.1062184 18.5558203,17.1838736 19.2214453,17.1755036 C19.8871875,17.1673661 20.6915625,17.112961 20.6922656,17.0011282 C20.6922656,16.9672994 20.6314453,16.9354468 20.525625,16.9103367 L20.6538281,16.7113163 C20.8263281,16.7644426 20.9769141,16.8670916 20.9765625,17.044722 C20.9749219,17.3467403 20.5875,17.3926591 20.3361328,17.4264879" id="Shape" fill="#FFFFFF"></path>
                    <path d="M29.8252734,1.74374558 C30.0111328,1.53335689 29.7290625,0.995212014 29.1952734,0.541934629 C28.66125,0.0888869258 28.0776563,-0.10795053 27.8914453,0.102438163 C27.7054688,0.312826855 27.9876563,0.850971731 28.5216797,1.30401943 C29.0554688,1.75718198 29.6392969,1.95424912 29.8252734,1.74374558 M22.7632031,37.652341 C22.5880078,36.0004682 26.4501563,33.6081007 25.4589844,33.5315018 C23.3252344,33.6510512 22.2632813,35.9819788 21.1897266,38.4232686 C20.7963281,39.3179947 19.4501953,43.133242 18.5673047,42.6635424 C17.6846484,42.1940724 19.7116406,39.0567314 20.2797656,37.1935512 C19.6242188,37.664629 17.2201172,39.4950795 16.6005469,37.7808481 C15.6044531,38.6098852 13.4759766,39.0590283 13.7160938,36.8812986 C13.1861719,37.8011749 11.9968359,39.0854417 10.5692578,38.5517756 C8.69449219,37.8511307 11.6555859,31.9987191 12.391875,32.2939753 C13.1282813,32.5891166 12.2432813,33.9223057 12.0114844,34.4400088 C11.5017188,35.5793463 10.9128516,37.0116431 11.30625,37.3048322 C11.9801953,37.8071466 13.8141797,35.4045583 13.8549609,35.3517314 C14.1979688,34.9076413 15.1751953,32.0022792 15.9628125,32.3358922 C16.7504297,32.6695053 13.9982813,36.5055389 15.0273047,37.2668198 C15.2348437,37.420477 16.0839844,37.172076 16.6005469,36.6243993 C16.9347656,36.2701148 16.8198047,35.4854064 17.9339062,32.8817314 C19.0480078,30.2781714 20.0409375,27.0357509 20.805,27.2827739 C21.5690625,27.529682 20.9392969,29.1938428 20.6651953,29.8142138 C19.3789453,32.7258922 17.1547266,37.5362367 18.2036719,37.172076 C19.2526172,36.80803 19.7988281,36.7866696 20.8259766,35.6087456 C21.853125,34.4308216 21.8057812,32.490583 22.4903906,32.531811 C23.1752344,32.5731537 23.0602734,33.1952473 22.8942188,33.6689664 C23.5680469,32.9133127 26.0882813,31.3218463 26.6967188,32.8980389 C27.4174219,34.7640901 23.0909766,37.459523 24.1696875,37.3220583 C25.2214453,37.1880389 26.9253516,36.1304682 27.6528516,35.1689046 L29.6553516,17.5263428 C29.6553516,17.5263428 27.6403125,19.16053 14.8207031,19.16053 C2.00097656,19.16053 0.194414062,17.5603357 0.194414062,17.5603357 L1.89925781,33.6637986 C2.80417969,31.1433834 4.95304687,26.0453622 8.34023438,26.2164753 C9.88101562,26.2943375 11.9378906,29.2017668 10.1759766,29.3003004 C9.43019531,29.3418728 9.35449219,27.8490548 8.47136719,27.6298233 C7.83410156,27.4715724 6.946875,27.9792845 6.37347656,28.5293728 C5.22996094,29.6261042 2.77054687,33.9531979 3.09550781,36.1104859 C3.50953125,38.8608127 6.96832031,35.1547792 7.55355469,34.0544876 C7.96570313,33.2794258 8.24414062,30.9830654 9.14554688,31.2240018 C10.0470703,31.4649382 9.06691406,33.8347968 8.41347656,35.9300707 C7.67941406,38.282818 7.29351563,40.7646466 6.37347656,40.4791519 C5.45332031,40.1938869 6.95214844,37.1565724 6.89789063,36.6243993 C6.03304688,37.4063516 4.43976563,39.3859806 2.40140625,38.4061572 L3.46019531,48.4062809 C3.46019531,48.4062809 6.27421875,50.585159 14.7512109,50.585159 C23.2282031,50.585159 26.1464063,48.4402739 26.1464063,48.4402739 L27.4611328,36.8577562 C26.3854687,37.8842049 22.9811719,39.7069611 22.7632031,37.652341" id="Shape" fill="#D34A47"></path>
                </g>
                <text id="Gulp/2/Webpack" font-family="Avenir-Book, Avenir" font-size="18" font-weight="normal" fill="#004F5F">
                    <tspan x="97" y="43">Gulp/2/Webpack</tspan>
                </text>
            </g>
        </g>
    </g>
</svg>